<svg width="18" height="18" viewBox="0 0 18 18" fill="none" xmlns="http://www.w3.org/2000/svg">
<path d="M17.8029 0.0512179C17.6811 -0.0183134 17.5313 -0.0171415 17.4106 0.0542648L10.2522 4.28723C10.0665 4.39704 10.005 4.63657 10.1148 4.82227C10.2246 5.00794 10.4641 5.06946 10.6498 4.95969L15.7858 1.92262L6.2192 11.8489L1.46107 10.3932L7.67064 6.72133C7.85635 6.61149 7.91787 6.37196 7.80807 6.18626C7.6983 6.00059 7.45873 5.93899 7.27303 6.04883L0.301192 10.1715C0.167989 10.2502 0.0938095 10.4002 0.11213 10.5539C0.13045 10.7076 0.237755 10.836 0.385724 10.8813L6.06811 12.6197L8.57502 17.1827C8.57764 17.1874 8.58033 17.1914 8.58311 17.195C8.62494 17.2647 8.68764 17.3217 8.76584 17.3546C8.81479 17.3752 8.86623 17.3852 8.91733 17.3852C9.01744 17.3852 9.116 17.3467 9.19041 17.274L12.073 14.4568L17.4951 16.1156C17.5326 16.127 17.5711 16.1327 17.6094 16.1327C17.692 16.1327 17.7737 16.1065 17.8417 16.0561C17.9413 15.9824 18 15.8659 18 15.7421V0.390515C18 0.250241 17.9248 0.12071 17.8029 0.0512179ZM8.59631 12.8604C8.55108 12.9258 8.52682 13.0034 8.52682 13.0829V15.4723L6.81498 12.3565L14.39 4.49676L8.59631 12.8604ZM9.30807 16.0666V13.6109L11.2217 14.1964L9.30807 16.0666ZM17.2188 15.2141L9.54303 12.8658L17.2188 1.7852V15.2141Z" fill="white"/>
</svg>
