<svg width="30" height="31" viewBox="0 0 30 31" fill="none" xmlns="http://www.w3.org/2000/svg">
<path d="M22.9688 16.1665C22.9688 16.8035 23.4934 17.3198 24.1406 17.3198C24.7879 17.3198 25.3125 16.8035 25.3125 16.1665V9.39049H28.8281C29.4754 9.39049 30 8.87414 30 8.23715V3.96996C30 3.04567 29.6343 2.17675 28.9702 1.52326C28.3081 0.871742 27.4286 0.512303 26.4926 0.510169C26.4898 0.510169 26.487 0.509766 26.4841 0.509766L8.20277 0.509996C6.26449 0.510169 4.6875 2.06228 4.6875 3.96996V20.7509C2.10281 20.7509 0 22.8204 0 25.3643V25.4219C0 27.9657 2.10281 30.0353 4.6875 30.0353H25.3125C27.8972 30.0353 30 27.9657 30 25.4219V25.3643C30 22.8204 27.8972 20.7509 25.3125 20.7509H24.1992C24.1893 20.7509 24.1798 20.7521 24.1699 20.7523C24.1601 20.7521 24.1505 20.7509 24.1406 20.7509C23.4934 20.7509 22.9688 21.2672 22.9688 21.9042V27.7286H7.03125V3.96996C7.03125 3.33407 7.55689 2.81668 8.20295 2.81662L23.1704 2.81645C23.0402 3.1775 22.9688 3.5656 22.9688 3.96996V16.1665ZM25.3125 3.96996C25.3125 3.33407 25.8381 2.81668 26.4843 2.81662C26.7973 2.81662 27.0916 2.93657 27.313 3.15438C27.5344 3.37218 27.6562 3.6619 27.6562 3.96996V7.08381H25.3125V3.96996ZM4.6875 27.7286C3.39516 27.7286 2.34375 26.6938 2.34375 25.4219V25.3643C2.34375 24.0923 3.39516 23.0576 4.6875 23.0576V27.7286ZM25.3125 23.0576C26.6048 23.0576 27.6562 24.0923 27.6562 25.3643V25.4219C27.6562 26.6938 26.6048 27.7286 25.3125 27.7286V23.0576Z" fill="white"/>
</svg>
