<svg width="30" height="28" viewBox="0 0 30 28" fill="black" xmlns="http://www.w3.org/2000/svg">
<path d="M16.3895 10.8701C17.1769 10.8701 17.7466 11.604 17.5328 12.3438L14.8714 21.5588C14.7269 22.0584 14.2598 22.4035 13.7276 22.4035C12.9403 22.4035 12.3706 21.6696 12.5844 20.9298L15.2458 11.7148C15.3902 11.2152 15.8574 10.8701 16.3895 10.8701ZM7.34711 16.3942L10.2452 14.0028C10.741 13.5937 10.806 12.8662 10.3903 12.378C9.97444 11.8901 9.23538 11.8261 8.7394 12.2352L5.8374 14.6297C5.83557 14.6313 5.83351 14.6329 5.83168 14.6345C5.21622 15.149 4.86328 15.8997 4.86328 16.6945C4.86328 17.4892 5.21622 18.24 5.83168 18.7545C5.83351 18.7558 5.83534 18.7576 5.8374 18.7592L8.73917 21.1535C8.95889 21.3348 9.22577 21.4231 9.4915 21.4231C9.82613 21.4231 10.1585 21.2828 10.3901 21.0109C10.806 20.5228 10.741 19.7952 10.245 19.3861L7.34711 16.9947C7.22534 16.8918 7.20703 16.7625 7.20703 16.6945C7.20703 16.6264 7.22534 16.4971 7.34711 16.3942ZM22.5893 16.999L19.7459 19.3935C19.2542 19.8076 19.1965 20.5356 19.6175 21.0197C19.8493 21.2862 20.1778 21.4231 20.5085 21.4231C20.7779 21.4231 21.0489 21.3321 21.2698 21.1461L24.1097 18.7543C24.7252 18.24 25.0781 17.4892 25.0781 16.6945C25.0781 15.8997 24.7252 15.149 24.1129 14.6374L21.2698 12.2429C20.7779 11.8286 20.0381 11.8854 19.6175 12.3692C19.1965 12.8533 19.2542 13.5814 19.7459 13.9954L22.5925 16.3926C22.7158 16.4958 22.7344 16.626 22.7344 16.6945C22.7344 16.7627 22.7161 16.8929 22.5893 16.999ZM30 4.1231V17.5018C30 18.1388 29.4754 18.6551 28.8281 18.6551C28.1808 18.6551 27.6562 18.1388 27.6562 17.5018V7.64077H2.34375V23.2685C2.34375 24.5403 3.39523 25.5752 4.6875 25.5752H25.3125C26.6048 25.5752 27.6562 24.5403 27.6562 23.2685C27.6562 22.6314 28.1808 22.1152 28.8281 22.1152C29.4754 22.1152 30 22.6314 30 23.2685C30 25.8124 27.8973 27.8818 25.3125 27.8818H4.6875C2.10274 27.8818 0 25.8124 0 23.2685V4.1231C0 2.21513 1.577 0.663086 3.51562 0.663086H26.4844C28.423 0.663086 30 2.21513 30 4.1231ZM20.5664 4.1231C20.5664 4.75901 21.0921 5.27643 21.7383 5.27643C22.3844 5.27643 22.9102 4.75901 22.9102 4.1231C22.9102 3.48718 22.3844 2.96976 21.7383 2.96976C21.0921 2.96976 20.5664 3.48718 20.5664 4.1231ZM26.4258 2.96976C25.7796 2.96976 25.2539 3.48718 25.2539 4.1231C25.2539 4.75901 25.7796 5.27643 26.4258 5.27643C27.0719 5.27643 27.5977 4.75901 27.5977 4.1231C27.5977 3.48718 27.0719 2.96976 26.4258 2.96976ZM2.34375 5.3341H18.4454C18.3016 4.95701 18.2227 4.54907 18.2227 4.1231C18.2227 3.71875 18.2941 3.33085 18.4243 2.96976H3.51562C2.86949 2.96976 2.34375 3.48718 2.34375 4.1231V5.3341Z" fill="#FF6584"/>
</svg>
