<svg width="30" height="31" viewBox="0 0 30 31" fill="none" xmlns="http://www.w3.org/2000/svg">
<path d="M29.7374 7.23692C29.5149 6.9675 29.1809 6.81111 28.8281 6.81111H28.4057L22.3623 0.863218C21.9046 0.412781 21.1626 0.412781 20.705 0.863218L18.1644 3.3636L15.6238 0.863218C15.1661 0.412781 14.4241 0.412781 13.9664 0.863218L7.92298 6.81111H7.60171L7.51476 6.02499L7.51165 5.99973C7.09564 2.87885 4.37009 0.525405 1.17187 0.525405C0.524648 0.525405 0 1.04176 0 1.67874C0 2.31573 0.524648 2.83208 1.17187 2.83208C3.19371 2.83208 4.91736 4.31695 5.18624 6.28795L6.57931 18.8836C5.36132 19.4278 4.51171 20.6353 4.51171 22.0352C4.51171 22.0449 4.51294 22.0543 4.51318 22.064C4.51294 22.0737 4.51171 22.0831 4.51171 22.0929C4.51171 24.0007 6.08882 25.5529 8.02733 25.5529H8.50528C8.38598 25.897 8.3203 26.2652 8.3203 26.6486C8.3203 28.5246 9.87116 30.0509 11.7773 30.0509C13.6835 30.0509 15.2344 28.5246 15.2344 26.6486C15.2344 26.2652 15.1687 25.897 15.0494 25.5529H20.1068C19.9875 25.897 19.9218 26.2652 19.9218 26.6486C19.9218 28.5246 21.4727 30.0509 23.3789 30.0509C25.285 30.0509 26.8359 28.5246 26.8359 26.6486C26.8359 24.7725 25.285 23.2462 23.3789 23.2462H8.02733C7.38116 23.2462 6.85546 22.7288 6.85546 22.0929C6.85546 22.0831 6.85423 22.0737 6.85399 22.064C6.85423 22.0543 6.85546 22.0449 6.85546 22.0352C6.85546 21.3992 7.38116 20.8819 8.02733 20.8819H22.9881C25.0684 20.8819 26.9775 19.6151 27.8517 17.6547C28.1118 17.0714 27.8423 16.391 27.2497 16.1351C26.6571 15.879 25.9657 16.1443 25.7056 16.7276C25.2128 17.8327 24.1207 18.5752 22.9881 18.5752H8.90278L7.85683 9.11779H27.3866L26.8132 11.8233C26.6811 12.4469 27.0876 13.0578 27.7211 13.1879C27.8019 13.2045 27.8823 13.2124 27.9616 13.2124C28.5048 13.2124 28.9923 12.8384 29.1076 12.2943L29.9753 8.19996C30.0473 7.86007 29.9599 7.50634 29.7374 7.23692ZM23.3789 25.5529C23.9928 25.5529 24.4922 26.0444 24.4922 26.6486C24.4922 27.2527 23.9928 27.7442 23.3789 27.7442C22.765 27.7442 22.2656 27.2527 22.2656 26.6486C22.2656 26.0444 22.765 25.5529 23.3789 25.5529ZM11.7773 25.5529C12.3912 25.5529 12.8906 26.0444 12.8906 26.6486C12.8906 27.2527 12.3912 27.7442 11.7773 27.7442C11.1634 27.7442 10.664 27.2527 10.664 26.6486C10.664 26.0444 11.1634 25.5529 11.7773 25.5529ZM14.6615 6.81111H11.2376L14.7951 3.3098L16.5071 4.99471L14.6615 6.81111ZM17.9761 6.81111L21.5336 3.3098L25.0912 6.81111H17.9761Z" fill="#FF6584"/>
</svg>
