<svg width="30" height="27" viewBox="0 0 30 27" fill="none" xmlns="http://www.w3.org/2000/svg">
<path d="M23.3446 3.55531C22.997 3.18134 22.4067 3.15499 22.0254 3.49776L15.6993 9.19361L11.6596 5.74797C11.3085 5.44874 10.7876 5.44874 10.4368 5.74797L3.46587 11.6898C3.07593 12.0218 3.03363 12.6022 3.37124 12.9857C3.55581 13.1955 3.81597 13.3033 4.07736 13.3033C4.29363 13.3033 4.51148 13.2292 4.68796 13.0788L11.0477 7.65801L15.1046 11.1181C15.4622 11.4231 15.9959 11.4167 16.3463 11.1015L23.2861 4.85339C23.6661 4.5109 23.6925 3.92991 23.3446 3.55531Z" fill="#FF6584"/>
<path d="M26.586 0.526826C26.3672 0.310577 26.0551 0.21537 25.7508 0.271364L20.4603 1.25146C20.1199 1.31484 19.8429 1.55773 19.7408 1.88331C19.6387 2.20889 19.7277 2.56325 19.9727 2.8043L24.2362 7.00027C24.4139 7.17482 24.6522 7.26917 24.8962 7.26917C24.9874 7.26917 25.0792 7.25602 25.1691 7.22903C25.499 7.13007 25.7464 6.85968 25.8127 6.52642L26.8397 1.35036C26.8991 1.05147 26.8039 0.743074 26.586 0.526826ZM24.3158 4.47996L22.5431 2.73539L24.7428 2.32803L24.3158 4.47996Z" fill="#FF6584"/>
<path d="M29.0663 24.4517H0.933631C0.417948 24.4517 0 24.8629 0 25.3705C0 25.878 0.417948 26.2893 0.933631 26.2893H29.0664C29.5823 26.2893 30 25.878 30 25.3705C30 24.8629 29.582 24.4517 29.0663 24.4517Z" fill="#FF6584"/>
<path d="M15.0001 17.9277C14.4844 17.9277 14.0664 18.3391 14.0664 18.8466V25.3704C14.0664 25.878 14.4844 26.2893 15.0001 26.2893C15.5158 26.2893 15.9337 25.878 15.9337 25.3704V18.8466C15.9337 18.3391 15.5158 17.9277 15.0001 17.9277Z" fill="#FF6584"/>
<path d="M11.2657 12.4146C10.75 12.4146 10.332 12.8259 10.332 13.3334V25.3702C10.332 25.8777 10.75 26.2891 11.2657 26.2891C11.7814 26.2891 12.1993 25.8777 12.1993 25.3702V13.3334C12.1993 12.8259 11.7813 12.4146 11.2657 12.4146Z" fill="#FF6584"/>
<path d="M18.7344 15.4778C18.2187 15.4778 17.8008 15.8891 17.8008 16.3966V25.3706C17.8008 25.8781 18.2187 26.2894 18.7344 26.2894C19.2501 26.2894 19.6681 25.8781 19.6681 25.3706V16.3966C19.6681 15.8891 19.2501 15.4778 18.7344 15.4778Z" fill="#FF6584"/>
<path d="M22.4688 9.0459C21.9531 9.0459 21.5352 9.45723 21.5352 9.96476V25.3706C21.5352 25.8781 21.9531 26.2894 22.4688 26.2894C22.9845 26.2894 23.4025 25.8781 23.4025 25.3706V9.96476C23.4024 9.45723 22.9845 9.0459 22.4688 9.0459Z" fill="#FF6584"/>
<path d="M26.2032 12.4146C25.6875 12.4146 25.2695 12.8259 25.2695 13.3334V25.3702C25.2695 25.8777 25.6875 26.2891 26.2032 26.2891C26.7189 26.2891 27.1368 25.8777 27.1368 25.3702V13.3334C27.1368 12.8259 26.7189 12.4146 26.2032 12.4146Z" fill="#FF6584"/>
<path d="M7.53131 20.3779C7.01562 20.3779 6.59766 20.7893 6.59766 21.2968V25.3702C6.59766 25.8777 7.01562 26.2891 7.53131 26.2891C8.04701 26.2891 8.46497 25.8777 8.46497 25.3702V21.2968C8.46497 20.7893 8.04701 20.3779 7.53131 20.3779Z" fill="#FF6584"/>
<path d="M3.79669 17.6216C3.281 17.6216 2.86304 18.0329 2.86304 18.5405V25.3706C2.86304 25.8781 3.281 26.2894 3.79669 26.2894C4.31239 26.2894 4.73035 25.8781 4.73035 25.3706V18.5405C4.73029 18.0329 4.31233 17.6216 3.79669 17.6216Z" fill="#FF6584"/>
</svg>
