<svg width="30" height="31" viewBox="0 0 30 31" fill="none" xmlns="http://www.w3.org/2000/svg">
<path d="M12.6563 26.6329C12.009 26.6329 11.4844 26.1166 11.4844 25.4796C11.4844 24.8426 12.009 24.3262 12.6563 24.3262C13.3035 24.3262 13.8281 24.8426 13.8281 25.4796C13.8281 26.1166 13.3035 26.6329 12.6563 26.6329ZM24.1406 17.5215C23.4934 17.5215 22.9688 18.0379 22.9688 18.6749V20.8086H5.85938C5.21215 20.8086 4.6875 21.3249 4.6875 21.9619C4.6875 22.5989 5.21215 23.1152 5.85938 23.1152H22.9688V25.4219C22.9688 26.6938 21.9174 27.7286 20.625 27.7286H4.6875C3.39516 27.7286 2.34375 26.6938 2.34375 25.4219V5.12313C2.34375 3.85122 3.39516 2.81645 4.6875 2.81645H20.625C20.9079 2.81645 21.1839 2.86518 21.4453 2.96136C22.0515 3.1843 22.7267 2.88132 22.9532 2.2847C23.1798 1.68808 22.872 1.02358 22.2657 0.80058C21.741 0.607627 21.189 0.509766 20.625 0.509766H4.6875C2.10281 0.509766 0 2.57932 0 5.12313V25.4219C0 27.9657 2.10281 30.0353 4.6875 30.0353H20.625C23.2097 30.0353 25.3125 27.9657 25.3125 25.4219V18.6749C25.3125 18.0379 24.7879 17.5215 24.1406 17.5215ZM28.9703 9.41505L22.5501 15.7219C22.4071 15.8624 22.2297 15.9641 22.035 16.0171L17.305 17.3066C17.2017 17.3348 17.0965 17.3485 16.9923 17.3485C16.6807 17.3485 16.377 17.2261 16.1534 17.0006C15.8549 16.6995 15.7467 16.2624 15.8709 15.8599L17.272 11.3201C17.3282 11.1383 17.429 10.973 17.5656 10.8389L23.9994 4.52085C25.3692 3.17266 27.5996 3.17271 28.9703 4.52178C30.341 5.87095 30.341 8.06599 28.9703 9.41505ZM25.4279 9.6358L23.7703 8.0044L19.4292 12.2674L18.7328 14.5239L21.1124 13.8751L25.4279 9.6358ZM27.313 6.15294C26.8561 5.70326 26.1127 5.70326 25.6558 6.15294L25.4295 6.37519L27.0868 8.0063L27.3138 7.78331C27.7699 7.33431 27.7699 6.60263 27.313 6.15294Z" fill="#FF6584"/>
</svg>
